<?xml version="1.0" encoding="utf-8" standalone="no"?>
<!DOCTYPE svg PUBLIC "-//W3C//DTD SVG 1.1//EN"
  "http://www.w3.org/Graphics/SVG/1.1/DTD/svg11.dtd">
<svg xmlns:xlink="http://www.w3.org/1999/xlink" width="425.7pt" height="90.36pt" viewBox="0 0 425.7 90.36" xmlns="http://www.w3.org/2000/svg" version="1.1">
 <metadata>
  <rdf:RDF xmlns:dc="http://purl.org/dc/elements/1.1/" xmlns:cc="http://creativecommons.org/ns#" xmlns:rdf="http://www.w3.org/1999/02/22-rdf-syntax-ns#">
   <cc:Work>
    <dc:type rdf:resource="http://purl.org/dc/dcmitype/StillImage"/>
    <dc:date>2026-02-19T09:43:09.261147</dc:date>
    <dc:format>image/svg+xml</dc:format>
    <dc:creator>
     <cc:Agent>
      <dc:title>Matplotlib v3.9.2, https://matplotlib.org/</dc:title>
     </cc:Agent>
    </dc:creator>
   </cc:Work>
  </rdf:RDF>
 </metadata>
 <defs>
  <style type="text/css">*{stroke-linejoin: round; stroke-linecap: butt}</style>
 </defs>
 <g id="figure_1">
  <g id="patch_1">
   <path d="M 0 90.36 
L 425.7 90.36 
L 425.7 0 
L 0 0 
z
" style="fill: #ffffff"/>
  </g>
  <g id="axes_1">
   <g id="patch_2">
    <path d="M 16.155 72.9 
L 133.335 72.9 
Q 137.52 72.9 137.52 70.128 
L 137.52 9.144 
Q 137.52 6.372 133.335 6.372 
L 16.155 6.372 
Q 11.97 6.372 11.97 9.144 
L 11.97 70.128 
Q 11.97 72.9 16.155 72.9 
z
" clip-path="url(#pe79d08f08b)" style="fill: #f0f0f0; stroke: #000000; stroke-width: 0.7; stroke-linejoin: miter"/>
   </g>
   <g id="patch_3">
    <path d="M 154.26 72.9 
L 271.44 72.9 
Q 275.625 72.9 275.625 70.128 
L 275.625 9.144 
Q 275.625 6.372 271.44 6.372 
L 154.26 6.372 
Q 150.075 6.372 150.075 9.144 
L 150.075 70.128 
Q 150.075 72.9 154.26 72.9 
z
" clip-path="url(#pe79d08f08b)" style="fill: #f0f0f0; stroke: #000000; stroke-width: 0.7; stroke-linejoin: miter"/>
   </g>
   <g id="patch_4">
    <path d="M 292.365 72.9 
L 409.545 72.9 
Q 413.73 72.9 413.73 70.128 
L 413.73 9.144 
Q 413.73 6.372 409.545 6.372 
L 292.365 6.372 
Q 288.18 6.372 288.18 9.144 
L 288.18 70.128 
Q 288.18 72.9 292.365 72.9 
z
" clip-path="url(#pe79d08f08b)" style="fill: #f0f0f0; stroke: #000000; stroke-width: 0.7; stroke-linejoin: miter"/>
   </g>
   <g id="patch_5">
    <path d="M 28.71 54.882 
L 42.939 54.882 
L 42.939 43.794 
L 28.71 43.794 
z
" clip-path="url(#pe79d08f08b)" style="opacity: 0.15; stroke: #999999; stroke-width: 0.3; stroke-linejoin: miter"/>
   </g>
   <g id="patch_6">
    <path d="M 44.613 54.882 
L 58.842 54.882 
L 58.842 43.794 
L 44.613 43.794 
z
" clip-path="url(#pe79d08f08b)" style="opacity: 0.3; stroke: #999999; stroke-width: 0.3; stroke-linejoin: miter"/>
   </g>
   <g id="patch_7">
    <path d="M 60.516 54.882 
L 74.745 54.882 
L 74.745 43.794 
L 60.516 43.794 
z
" clip-path="url(#pe79d08f08b)" style="opacity: 0.45; stroke: #999999; stroke-width: 0.3; stroke-linejoin: miter"/>
   </g>
   <g id="patch_8">
    <path d="M 76.419 54.882 
L 90.648 54.882 
L 90.648 43.794 
L 76.419 43.794 
z
" clip-path="url(#pe79d08f08b)" style="opacity: 0.6; stroke: #999999; stroke-width: 0.3; stroke-linejoin: miter"/>
   </g>
   <g id="patch_9">
    <path d="M 92.322 54.882 
L 106.551 54.882 
L 106.551 43.794 
L 92.322 43.794 
z
" clip-path="url(#pe79d08f08b)" style="opacity: 0.8; stroke: #999999; stroke-width: 0.3; stroke-linejoin: miter"/>
   </g>
   <g id="patch_10">
    <path d="M 108.225 54.882 
L 122.454 54.882 
L 122.454 43.794 
L 108.225 43.794 
z
" clip-path="url(#pe79d08f08b)" style="stroke: #999999; stroke-width: 0.3; stroke-linejoin: miter"/>
   </g>
   <g id="patch_11">
    <path d="M 166.815 54.882 
L 183.555 54.882 
L 183.555 43.794 
L 166.815 43.794 
z
" clip-path="url(#pe79d08f08b)" style="opacity: 0.05; stroke: #999999; stroke-width: 0.3; stroke-linejoin: miter"/>
   </g>
   <g id="patch_12">
    <path d="M 185.229 54.882 
L 201.969 54.882 
L 201.969 43.794 
L 185.229 43.794 
z
" clip-path="url(#pe79d08f08b)" style="opacity: 0.25; stroke: #999999; stroke-width: 0.3; stroke-linejoin: miter"/>
   </g>
   <g id="patch_13">
    <path d="M 203.643 54.882 
L 220.383 54.882 
L 220.383 43.794 
L 203.643 43.794 
z
" clip-path="url(#pe79d08f08b)" style="opacity: 0.5; stroke: #999999; stroke-width: 0.3; stroke-linejoin: miter"/>
   </g>
   <g id="patch_14">
    <path d="M 222.057 54.882 
L 238.797 54.882 
L 238.797 43.794 
L 222.057 43.794 
z
" clip-path="url(#pe79d08f08b)" style="opacity: 0.75; stroke: #999999; stroke-width: 0.3; stroke-linejoin: miter"/>
   </g>
   <g id="patch_15">
    <path d="M 240.471 54.882 
L 257.211 54.882 
L 257.211 43.794 
L 240.471 43.794 
z
" clip-path="url(#pe79d08f08b)" style="stroke: #999999; stroke-width: 0.3; stroke-linejoin: miter"/>
   </g>
   <g id="line2d_1">
    <defs>
     <path id="m2121284511" d="M 0 1 
C 0.265203 1 0.51958 0.894634 0.707107 0.707107 
C 0.894634 0.51958 1 0.265203 1 0 
C 1 -0.265203 0.894634 -0.51958 0.707107 -0.707107 
C 0.51958 -0.894634 0.265203 -1 0 -1 
C -0.265203 -1 -0.51958 -0.894634 -0.707107 -0.707107 
C -0.894634 -0.51958 -1 -0.265203 -1 0 
C -1 0.265203 -0.894634 0.51958 -0.707107 0.707107 
C -0.51958 0.894634 -0.265203 1 0 1 
z
" style="stroke: #999999; stroke-opacity: 0.5"/>
    </defs>
    <g clip-path="url(#pe79d08f08b)">
     <use xlink:href="#m2121284511" x="339.403909" y="44.34048" style="fill: #999999; fill-opacity: 0.5; stroke: #999999; stroke-opacity: 0.5"/>
    </g>
   </g>
   <g id="line2d_2">
    <defs>
     <path id="m19216045bd" d="M 0 1 
C 0.265203 1 0.51958 0.894634 0.707107 0.707107 
C 0.894634 0.51958 1 0.265203 1 0 
C 1 -0.265203 0.894634 -0.51958 0.707107 -0.707107 
C 0.51958 -0.894634 0.265203 -1 0 -1 
C -0.265203 -1 -0.51958 -0.894634 -0.707107 -0.707107 
C -0.894634 -0.51958 -1 -0.265203 -1 0 
C -1 0.265203 -0.894634 0.51958 -0.707107 0.707107 
C -0.51958 0.894634 -0.265203 1 0 1 
z
" style="stroke: #666666; stroke-opacity: 0.5"/>
    </defs>
    <g clip-path="url(#pe79d08f08b)">
     <use xlink:href="#m19216045bd" x="376.70615" y="48.264125" style="fill: #666666; fill-opacity: 0.5; stroke: #666666; stroke-opacity: 0.5"/>
    </g>
   </g>
   <g id="line2d_3">
    <defs>
     <path id="mb2560945f7" d="M 0 1 
C 0.265203 1 0.51958 0.894634 0.707107 0.707107 
C 0.894634 0.51958 1 0.265203 1 0 
C 1 -0.265203 0.894634 -0.51958 0.707107 -0.707107 
C 0.51958 -0.894634 0.265203 -1 0 -1 
C -0.265203 -1 -0.51958 -0.894634 -0.707107 -0.707107 
C -0.894634 -0.51958 -1 -0.265203 -1 0 
C -1 0.265203 -0.894634 0.51958 -0.707107 0.707107 
C -0.51958 0.894634 -0.265203 1 0 1 
z
" style="stroke: #000000; stroke-opacity: 0.5"/>
    </defs>
    <g clip-path="url(#pe79d08f08b)">
     <use xlink:href="#mb2560945f7" x="319.282415" y="54.237969" style="fill-opacity: 0.5; stroke: #000000; stroke-opacity: 0.5"/>
    </g>
   </g>
   <g id="line2d_4">
    <g clip-path="url(#pe79d08f08b)">
     <use xlink:href="#m19216045bd" x="360.264659" y="47.030891" style="fill: #666666; fill-opacity: 0.5; stroke: #666666; stroke-opacity: 0.5"/>
    </g>
   </g>
   <g id="line2d_5">
    <g clip-path="url(#pe79d08f08b)">
     <use xlink:href="#m19216045bd" x="310.113814" y="46.876478" style="fill: #666666; fill-opacity: 0.5; stroke: #666666; stroke-opacity: 0.5"/>
    </g>
   </g>
   <g id="line2d_6">
    <g clip-path="url(#pe79d08f08b)">
     <use xlink:href="#mb2560945f7" x="324.470062" y="52.865925" style="fill-opacity: 0.5; stroke: #000000; stroke-opacity: 0.5"/>
    </g>
   </g>
   <g id="line2d_7">
    <g clip-path="url(#pe79d08f08b)">
     <use xlink:href="#mb2560945f7" x="361.771523" y="48.09999" style="fill-opacity: 0.5; stroke: #000000; stroke-opacity: 0.5"/>
    </g>
   </g>
   <g id="line2d_8">
    <g clip-path="url(#pe79d08f08b)">
     <use xlink:href="#m2121284511" x="344.689178" y="51.652851" style="fill: #999999; fill-opacity: 0.5; stroke: #999999; stroke-opacity: 0.5"/>
    </g>
   </g>
   <g id="line2d_9">
    <g clip-path="url(#pe79d08f08b)">
     <use xlink:href="#m2121284511" x="341.7352" y="54.364571" style="fill: #999999; fill-opacity: 0.5; stroke: #999999; stroke-opacity: 0.5"/>
    </g>
   </g>
   <g id="line2d_10">
    <g clip-path="url(#pe79d08f08b)">
     <use xlink:href="#m2121284511" x="346.910363" y="46.175969" style="fill: #999999; fill-opacity: 0.5; stroke: #999999; stroke-opacity: 0.5"/>
    </g>
   </g>
   <g id="line2d_11">
    <g clip-path="url(#pe79d08f08b)">
     <use xlink:href="#mb2560945f7" x="340.133276" y="43.979936" style="fill-opacity: 0.5; stroke: #000000; stroke-opacity: 0.5"/>
    </g>
   </g>
   <g id="line2d_12">
    <g clip-path="url(#pe79d08f08b)">
     <use xlink:href="#mb2560945f7" x="309.196689" y="48.145543" style="fill-opacity: 0.5; stroke: #000000; stroke-opacity: 0.5"/>
    </g>
   </g>
   <g id="line2d_13">
    <g clip-path="url(#pe79d08f08b)">
     <use xlink:href="#mb2560945f7" x="346.397466" y="54.734918" style="fill-opacity: 0.5; stroke: #000000; stroke-opacity: 0.5"/>
    </g>
   </g>
   <g id="line2d_14">
    <g clip-path="url(#pe79d08f08b)">
     <use xlink:href="#mb2560945f7" x="393.825741" y="45.91849" style="fill-opacity: 0.5; stroke: #000000; stroke-opacity: 0.5"/>
    </g>
   </g>
   <g id="line2d_15">
    <g clip-path="url(#pe79d08f08b)">
     <use xlink:href="#m2121284511" x="306.390013" y="52.321849" style="fill: #999999; fill-opacity: 0.5; stroke: #999999; stroke-opacity: 0.5"/>
    </g>
   </g>
   <g id="line2d_16">
    <g clip-path="url(#pe79d08f08b)">
     <use xlink:href="#m2121284511" x="367.828072" y="48.118357" style="fill: #999999; fill-opacity: 0.5; stroke: #999999; stroke-opacity: 0.5"/>
    </g>
   </g>
   <g id="line2d_17">
    <g clip-path="url(#pe79d08f08b)">
     <use xlink:href="#m19216045bd" x="320.881684" y="50.54592" style="fill: #666666; fill-opacity: 0.5; stroke: #666666; stroke-opacity: 0.5"/>
    </g>
   </g>
   <g id="line2d_18">
    <g clip-path="url(#pe79d08f08b)">
     <use xlink:href="#m19216045bd" x="365.918427" y="51.425748" style="fill: #666666; fill-opacity: 0.5; stroke: #666666; stroke-opacity: 0.5"/>
    </g>
   </g>
   <g id="line2d_19">
    <g clip-path="url(#pe79d08f08b)">
     <use xlink:href="#mb2560945f7" x="324.065189" y="48.587339" style="fill-opacity: 0.5; stroke: #000000; stroke-opacity: 0.5"/>
    </g>
   </g>
   <g id="line2d_20">
    <g clip-path="url(#pe79d08f08b)">
     <use xlink:href="#m19216045bd" x="394.189657" y="46.287327" style="fill: #666666; fill-opacity: 0.5; stroke: #666666; stroke-opacity: 0.5"/>
    </g>
   </g>
   <g id="line2d_21">
    <g clip-path="url(#pe79d08f08b)">
     <use xlink:href="#m2121284511" x="341.301482" y="44.607206" style="fill: #999999; fill-opacity: 0.5; stroke: #999999; stroke-opacity: 0.5"/>
    </g>
   </g>
   <g id="line2d_22">
    <g clip-path="url(#pe79d08f08b)">
     <use xlink:href="#m2121284511" x="389.796961" y="53.900795" style="fill: #999999; fill-opacity: 0.5; stroke: #999999; stroke-opacity: 0.5"/>
    </g>
   </g>
   <g id="line2d_23">
    <g clip-path="url(#pe79d08f08b)">
     <use xlink:href="#mb2560945f7" x="352.87321" y="44.224525" style="fill-opacity: 0.5; stroke: #000000; stroke-opacity: 0.5"/>
    </g>
   </g>
   <g id="line2d_24">
    <g clip-path="url(#pe79d08f08b)">
     <use xlink:href="#mb2560945f7" x="340.705518" y="51.873282" style="fill-opacity: 0.5; stroke: #000000; stroke-opacity: 0.5"/>
    </g>
   </g>
   <g id="line2d_25">
    <g clip-path="url(#pe79d08f08b)">
     <use xlink:href="#mb2560945f7" x="358.94218" y="44.179249" style="fill-opacity: 0.5; stroke: #000000; stroke-opacity: 0.5"/>
    </g>
   </g>
   <g id="line2d_26">
    <g clip-path="url(#pe79d08f08b)">
     <use xlink:href="#mb2560945f7" x="317.894893" y="45.98724" style="fill-opacity: 0.5; stroke: #000000; stroke-opacity: 0.5"/>
    </g>
   </g>
   <g id="line2d_27">
    <g clip-path="url(#pe79d08f08b)">
     <use xlink:href="#mb2560945f7" x="306.359644" y="50.187324" style="fill-opacity: 0.5; stroke: #000000; stroke-opacity: 0.5"/>
    </g>
   </g>
   <g id="line2d_28">
    <g clip-path="url(#pe79d08f08b)">
     <use xlink:href="#m2121284511" x="323.215753" y="54.820771" style="fill: #999999; fill-opacity: 0.5; stroke: #999999; stroke-opacity: 0.5"/>
    </g>
   </g>
   <g id="line2d_29">
    <g clip-path="url(#pe79d08f08b)">
     <use xlink:href="#m2121284511" x="323.22742" y="46.99464" style="fill: #999999; fill-opacity: 0.5; stroke: #999999; stroke-opacity: 0.5"/>
    </g>
   </g>
   <g id="line2d_30">
    <g clip-path="url(#pe79d08f08b)">
     <use xlink:href="#m2121284511" x="375.930861" y="54.060993" style="fill: #999999; fill-opacity: 0.5; stroke: #999999; stroke-opacity: 0.5"/>
    </g>
   </g>
   <g id="text_1">
    <!-- Set A (completeness gradient) -->
    <g transform="translate(12.772125 18.772875) scale(0.072 -0.072)">
     <defs>
      <path id="DejaVuSans-Bold-53" d="M 3834 4519 
L 3834 3531 
Q 3450 3703 3084 3790 
Q 2719 3878 2394 3878 
Q 1963 3878 1756 3759 
Q 1550 3641 1550 3391 
Q 1550 3203 1689 3098 
Q 1828 2994 2194 2919 
L 2706 2816 
Q 3484 2659 3812 2340 
Q 4141 2022 4141 1434 
Q 4141 663 3683 286 
Q 3225 -91 2284 -91 
Q 1841 -91 1394 -6 
Q 947 78 500 244 
L 500 1259 
Q 947 1022 1364 901 
Q 1781 781 2169 781 
Q 2563 781 2772 912 
Q 2981 1044 2981 1288 
Q 2981 1506 2839 1625 
Q 2697 1744 2272 1838 
L 1806 1941 
Q 1106 2091 782 2419 
Q 459 2747 459 3303 
Q 459 4000 909 4375 
Q 1359 4750 2203 4750 
Q 2588 4750 2994 4692 
Q 3400 4634 3834 4519 
z
" transform="scale(0.015625)"/>
      <path id="DejaVuSans-Bold-65" d="M 4031 1759 
L 4031 1441 
L 1416 1441 
Q 1456 1047 1700 850 
Q 1944 653 2381 653 
Q 2734 653 3104 758 
Q 3475 863 3866 1075 
L 3866 213 
Q 3469 63 3072 -14 
Q 2675 -91 2278 -91 
Q 1328 -91 801 392 
Q 275 875 275 1747 
Q 275 2603 792 3093 
Q 1309 3584 2216 3584 
Q 3041 3584 3536 3087 
Q 4031 2591 4031 1759 
z
M 2881 2131 
Q 2881 2450 2695 2645 
Q 2509 2841 2209 2841 
Q 1884 2841 1681 2658 
Q 1478 2475 1428 2131 
L 2881 2131 
z
" transform="scale(0.015625)"/>
      <path id="DejaVuSans-Bold-74" d="M 1759 4494 
L 1759 3500 
L 2913 3500 
L 2913 2700 
L 1759 2700 
L 1759 1216 
Q 1759 972 1856 886 
Q 1953 800 2241 800 
L 2816 800 
L 2816 0 
L 1856 0 
Q 1194 0 917 276 
Q 641 553 641 1216 
L 641 2700 
L 84 2700 
L 84 3500 
L 641 3500 
L 641 4494 
L 1759 4494 
z
" transform="scale(0.015625)"/>
      <path id="DejaVuSans-Bold-20" transform="scale(0.015625)"/>
      <path id="DejaVuSans-Bold-41" d="M 3419 850 
L 1538 850 
L 1241 0 
L 31 0 
L 1759 4666 
L 3194 4666 
L 4922 0 
L 3713 0 
L 3419 850 
z
M 1838 1716 
L 3116 1716 
L 2478 3572 
L 1838 1716 
z
" transform="scale(0.015625)"/>
      <path id="DejaVuSans-Bold-28" d="M 2413 -844 
L 1484 -844 
Q 1006 -72 778 623 
Q 550 1319 550 2003 
Q 550 2688 779 3389 
Q 1009 4091 1484 4856 
L 2413 4856 
Q 2013 4116 1813 3408 
Q 1613 2700 1613 2009 
Q 1613 1319 1811 609 
Q 2009 -100 2413 -844 
z
" transform="scale(0.015625)"/>
      <path id="DejaVuSans-Bold-63" d="M 3366 3391 
L 3366 2478 
Q 3138 2634 2908 2709 
Q 2678 2784 2431 2784 
Q 1963 2784 1702 2511 
Q 1441 2238 1441 1747 
Q 1441 1256 1702 982 
Q 1963 709 2431 709 
Q 2694 709 2930 787 
Q 3166 866 3366 1019 
L 3366 103 
Q 3103 6 2833 -42 
Q 2563 -91 2291 -91 
Q 1344 -91 809 395 
Q 275 881 275 1747 
Q 275 2613 809 3098 
Q 1344 3584 2291 3584 
Q 2566 3584 2833 3536 
Q 3100 3488 3366 3391 
z
" transform="scale(0.015625)"/>
      <path id="DejaVuSans-Bold-6f" d="M 2203 2784 
Q 1831 2784 1636 2517 
Q 1441 2250 1441 1747 
Q 1441 1244 1636 976 
Q 1831 709 2203 709 
Q 2569 709 2762 976 
Q 2956 1244 2956 1747 
Q 2956 2250 2762 2517 
Q 2569 2784 2203 2784 
z
M 2203 3584 
Q 3106 3584 3614 3096 
Q 4122 2609 4122 1747 
Q 4122 884 3614 396 
Q 3106 -91 2203 -91 
Q 1297 -91 786 396 
Q 275 884 275 1747 
Q 275 2609 786 3096 
Q 1297 3584 2203 3584 
z
" transform="scale(0.015625)"/>
      <path id="DejaVuSans-Bold-6d" d="M 3781 2919 
Q 3994 3244 4286 3414 
Q 4578 3584 4928 3584 
Q 5531 3584 5847 3212 
Q 6163 2841 6163 2131 
L 6163 0 
L 5038 0 
L 5038 1825 
Q 5041 1866 5042 1909 
Q 5044 1953 5044 2034 
Q 5044 2406 4934 2573 
Q 4825 2741 4581 2741 
Q 4263 2741 4089 2478 
Q 3916 2216 3909 1719 
L 3909 0 
L 2784 0 
L 2784 1825 
Q 2784 2406 2684 2573 
Q 2584 2741 2328 2741 
Q 2006 2741 1831 2477 
Q 1656 2213 1656 1722 
L 1656 0 
L 531 0 
L 531 3500 
L 1656 3500 
L 1656 2988 
Q 1863 3284 2130 3434 
Q 2397 3584 2719 3584 
Q 3081 3584 3359 3409 
Q 3638 3234 3781 2919 
z
" transform="scale(0.015625)"/>
      <path id="DejaVuSans-Bold-70" d="M 1656 506 
L 1656 -1331 
L 538 -1331 
L 538 3500 
L 1656 3500 
L 1656 2988 
Q 1888 3294 2169 3439 
Q 2450 3584 2816 3584 
Q 3463 3584 3878 3070 
Q 4294 2556 4294 1747 
Q 4294 938 3878 423 
Q 3463 -91 2816 -91 
Q 2450 -91 2169 54 
Q 1888 200 1656 506 
z
M 2400 2772 
Q 2041 2772 1848 2508 
Q 1656 2244 1656 1747 
Q 1656 1250 1848 986 
Q 2041 722 2400 722 
Q 2759 722 2948 984 
Q 3138 1247 3138 1747 
Q 3138 2247 2948 2509 
Q 2759 2772 2400 2772 
z
" transform="scale(0.015625)"/>
      <path id="DejaVuSans-Bold-6c" d="M 538 4863 
L 1656 4863 
L 1656 0 
L 538 0 
L 538 4863 
z
" transform="scale(0.015625)"/>
      <path id="DejaVuSans-Bold-6e" d="M 4056 2131 
L 4056 0 
L 2931 0 
L 2931 347 
L 2931 1631 
Q 2931 2084 2911 2256 
Q 2891 2428 2841 2509 
Q 2775 2619 2662 2680 
Q 2550 2741 2406 2741 
Q 2056 2741 1856 2470 
Q 1656 2200 1656 1722 
L 1656 0 
L 538 0 
L 538 3500 
L 1656 3500 
L 1656 2988 
Q 1909 3294 2193 3439 
Q 2478 3584 2822 3584 
Q 3428 3584 3742 3212 
Q 4056 2841 4056 2131 
z
" transform="scale(0.015625)"/>
      <path id="DejaVuSans-Bold-73" d="M 3272 3391 
L 3272 2541 
Q 2913 2691 2578 2766 
Q 2244 2841 1947 2841 
Q 1628 2841 1473 2761 
Q 1319 2681 1319 2516 
Q 1319 2381 1436 2309 
Q 1553 2238 1856 2203 
L 2053 2175 
Q 2913 2066 3209 1816 
Q 3506 1566 3506 1031 
Q 3506 472 3093 190 
Q 2681 -91 1863 -91 
Q 1516 -91 1145 -36 
Q 775 19 384 128 
L 384 978 
Q 719 816 1070 734 
Q 1422 653 1784 653 
Q 2113 653 2278 743 
Q 2444 834 2444 1013 
Q 2444 1163 2330 1236 
Q 2216 1309 1875 1350 
L 1678 1375 
Q 931 1469 631 1722 
Q 331 1975 331 2491 
Q 331 3047 712 3315 
Q 1094 3584 1881 3584 
Q 2191 3584 2531 3537 
Q 2872 3491 3272 3391 
z
" transform="scale(0.015625)"/>
      <path id="DejaVuSans-Bold-67" d="M 2919 594 
Q 2688 288 2409 144 
Q 2131 0 1766 0 
Q 1125 0 706 504 
Q 288 1009 288 1791 
Q 288 2575 706 3076 
Q 1125 3578 1766 3578 
Q 2131 3578 2409 3434 
Q 2688 3291 2919 2981 
L 2919 3500 
L 4044 3500 
L 4044 353 
Q 4044 -491 3511 -936 
Q 2978 -1381 1966 -1381 
Q 1638 -1381 1331 -1331 
Q 1025 -1281 716 -1178 
L 716 -306 
Q 1009 -475 1290 -558 
Q 1572 -641 1856 -641 
Q 2406 -641 2662 -400 
Q 2919 -159 2919 353 
L 2919 594 
z
M 2181 2772 
Q 1834 2772 1640 2515 
Q 1447 2259 1447 1791 
Q 1447 1309 1634 1061 
Q 1822 813 2181 813 
Q 2531 813 2725 1069 
Q 2919 1325 2919 1791 
Q 2919 2259 2725 2515 
Q 2531 2772 2181 2772 
z
" transform="scale(0.015625)"/>
      <path id="DejaVuSans-Bold-72" d="M 3138 2547 
Q 2991 2616 2845 2648 
Q 2700 2681 2553 2681 
Q 2122 2681 1889 2404 
Q 1656 2128 1656 1613 
L 1656 0 
L 538 0 
L 538 3500 
L 1656 3500 
L 1656 2925 
Q 1872 3269 2151 3426 
Q 2431 3584 2822 3584 
Q 2878 3584 2943 3579 
Q 3009 3575 3134 3559 
L 3138 2547 
z
" transform="scale(0.015625)"/>
      <path id="DejaVuSans-Bold-61" d="M 2106 1575 
Q 1756 1575 1579 1456 
Q 1403 1338 1403 1106 
Q 1403 894 1545 773 
Q 1688 653 1941 653 
Q 2256 653 2472 879 
Q 2688 1106 2688 1447 
L 2688 1575 
L 2106 1575 
z
M 3816 1997 
L 3816 0 
L 2688 0 
L 2688 519 
Q 2463 200 2181 54 
Q 1900 -91 1497 -91 
Q 953 -91 614 226 
Q 275 544 275 1050 
Q 275 1666 698 1953 
Q 1122 2241 2028 2241 
L 2688 2241 
L 2688 2328 
Q 2688 2594 2478 2717 
Q 2269 2841 1825 2841 
Q 1466 2841 1156 2769 
Q 847 2697 581 2553 
L 581 3406 
Q 941 3494 1303 3539 
Q 1666 3584 2028 3584 
Q 2975 3584 3395 3211 
Q 3816 2838 3816 1997 
z
" transform="scale(0.015625)"/>
      <path id="DejaVuSans-Bold-64" d="M 2919 2988 
L 2919 4863 
L 4044 4863 
L 4044 0 
L 2919 0 
L 2919 506 
Q 2688 197 2409 53 
Q 2131 -91 1766 -91 
Q 1119 -91 703 423 
Q 288 938 288 1747 
Q 288 2556 703 3070 
Q 1119 3584 1766 3584 
Q 2128 3584 2408 3439 
Q 2688 3294 2919 2988 
z
M 2181 722 
Q 2541 722 2730 984 
Q 2919 1247 2919 1747 
Q 2919 2247 2730 2509 
Q 2541 2772 2181 2772 
Q 1825 2772 1636 2509 
Q 1447 2247 1447 1747 
Q 1447 1247 1636 984 
Q 1825 722 2181 722 
z
" transform="scale(0.015625)"/>
      <path id="DejaVuSans-Bold-69" d="M 538 3500 
L 1656 3500 
L 1656 0 
L 538 0 
L 538 3500 
z
M 538 4863 
L 1656 4863 
L 1656 3950 
L 538 3950 
L 538 4863 
z
" transform="scale(0.015625)"/>
      <path id="DejaVuSans-Bold-29" d="M 513 -844 
Q 913 -100 1113 609 
Q 1313 1319 1313 2009 
Q 1313 2700 1113 3408 
Q 913 4116 513 4856 
L 1441 4856 
Q 1916 4091 2145 3389 
Q 2375 2688 2375 2003 
Q 2375 1319 2147 623 
Q 1919 -72 1441 -844 
L 513 -844 
z
" transform="scale(0.015625)"/>
     </defs>
     <use xlink:href="#DejaVuSans-Bold-53"/>
     <use xlink:href="#DejaVuSans-Bold-65" x="72.021484"/>
     <use xlink:href="#DejaVuSans-Bold-74" x="139.84375"/>
     <use xlink:href="#DejaVuSans-Bold-20" x="187.646484"/>
     <use xlink:href="#DejaVuSans-Bold-41" x="222.460938"/>
     <use xlink:href="#DejaVuSans-Bold-20" x="299.853516"/>
     <use xlink:href="#DejaVuSans-Bold-28" x="334.667969"/>
     <use xlink:href="#DejaVuSans-Bold-63" x="380.371094"/>
     <use xlink:href="#DejaVuSans-Bold-6f" x="439.648438"/>
     <use xlink:href="#DejaVuSans-Bold-6d" x="508.349609"/>
     <use xlink:href="#DejaVuSans-Bold-70" x="612.548828"/>
     <use xlink:href="#DejaVuSans-Bold-6c" x="684.130859"/>
     <use xlink:href="#DejaVuSans-Bold-65" x="718.408203"/>
     <use xlink:href="#DejaVuSans-Bold-74" x="786.230469"/>
     <use xlink:href="#DejaVuSans-Bold-65" x="834.033203"/>
     <use xlink:href="#DejaVuSans-Bold-6e" x="901.855469"/>
     <use xlink:href="#DejaVuSans-Bold-65" x="973.046875"/>
     <use xlink:href="#DejaVuSans-Bold-73" x="1040.869141"/>
     <use xlink:href="#DejaVuSans-Bold-73" x="1100.390625"/>
     <use xlink:href="#DejaVuSans-Bold-20" x="1159.912109"/>
     <use xlink:href="#DejaVuSans-Bold-67" x="1194.726562"/>
     <use xlink:href="#DejaVuSans-Bold-72" x="1266.308594"/>
     <use xlink:href="#DejaVuSans-Bold-61" x="1315.625"/>
     <use xlink:href="#DejaVuSans-Bold-64" x="1383.105469"/>
     <use xlink:href="#DejaVuSans-Bold-69" x="1454.6875"/>
     <use xlink:href="#DejaVuSans-Bold-65" x="1488.964844"/>
     <use xlink:href="#DejaVuSans-Bold-6e" x="1556.787109"/>
     <use xlink:href="#DejaVuSans-Bold-74" x="1627.978516"/>
     <use xlink:href="#DejaVuSans-Bold-29" x="1675.78125"/>
    </g>
   </g>
   <g id="text_2">
    <!-- comp: 50-100%  cont: 0% -->
    <g style="fill: #333333" transform="translate(35.799844 27.563063) scale(0.06 -0.06)">
     <defs>
      <path id="DejaVuSans-63" d="M 3122 3366 
L 3122 2828 
Q 2878 2963 2633 3030 
Q 2388 3097 2138 3097 
Q 1578 3097 1268 2742 
Q 959 2388 959 1747 
Q 959 1106 1268 751 
Q 1578 397 2138 397 
Q 2388 397 2633 464 
Q 2878 531 3122 666 
L 3122 134 
Q 2881 22 2623 -34 
Q 2366 -91 2075 -91 
Q 1284 -91 818 406 
Q 353 903 353 1747 
Q 353 2603 823 3093 
Q 1294 3584 2113 3584 
Q 2378 3584 2631 3529 
Q 2884 3475 3122 3366 
z
" transform="scale(0.015625)"/>
      <path id="DejaVuSans-6f" d="M 1959 3097 
Q 1497 3097 1228 2736 
Q 959 2375 959 1747 
Q 959 1119 1226 758 
Q 1494 397 1959 397 
Q 2419 397 2687 759 
Q 2956 1122 2956 1747 
Q 2956 2369 2687 2733 
Q 2419 3097 1959 3097 
z
M 1959 3584 
Q 2709 3584 3137 3096 
Q 3566 2609 3566 1747 
Q 3566 888 3137 398 
Q 2709 -91 1959 -91 
Q 1206 -91 779 398 
Q 353 888 353 1747 
Q 353 2609 779 3096 
Q 1206 3584 1959 3584 
z
" transform="scale(0.015625)"/>
      <path id="DejaVuSans-6d" d="M 3328 2828 
Q 3544 3216 3844 3400 
Q 4144 3584 4550 3584 
Q 5097 3584 5394 3201 
Q 5691 2819 5691 2113 
L 5691 0 
L 5113 0 
L 5113 2094 
Q 5113 2597 4934 2840 
Q 4756 3084 4391 3084 
Q 3944 3084 3684 2787 
Q 3425 2491 3425 1978 
L 3425 0 
L 2847 0 
L 2847 2094 
Q 2847 2600 2669 2842 
Q 2491 3084 2119 3084 
Q 1678 3084 1418 2786 
Q 1159 2488 1159 1978 
L 1159 0 
L 581 0 
L 581 3500 
L 1159 3500 
L 1159 2956 
Q 1356 3278 1631 3431 
Q 1906 3584 2284 3584 
Q 2666 3584 2933 3390 
Q 3200 3197 3328 2828 
z
" transform="scale(0.015625)"/>
      <path id="DejaVuSans-70" d="M 1159 525 
L 1159 -1331 
L 581 -1331 
L 581 3500 
L 1159 3500 
L 1159 2969 
Q 1341 3281 1617 3432 
Q 1894 3584 2278 3584 
Q 2916 3584 3314 3078 
Q 3713 2572 3713 1747 
Q 3713 922 3314 415 
Q 2916 -91 2278 -91 
Q 1894 -91 1617 61 
Q 1341 213 1159 525 
z
M 3116 1747 
Q 3116 2381 2855 2742 
Q 2594 3103 2138 3103 
Q 1681 3103 1420 2742 
Q 1159 2381 1159 1747 
Q 1159 1113 1420 752 
Q 1681 391 2138 391 
Q 2594 391 2855 752 
Q 3116 1113 3116 1747 
z
" transform="scale(0.015625)"/>
      <path id="DejaVuSans-3a" d="M 750 794 
L 1409 794 
L 1409 0 
L 750 0 
L 750 794 
z
M 750 3309 
L 1409 3309 
L 1409 2516 
L 750 2516 
L 750 3309 
z
" transform="scale(0.015625)"/>
      <path id="DejaVuSans-20" transform="scale(0.015625)"/>
      <path id="DejaVuSans-35" d="M 691 4666 
L 3169 4666 
L 3169 4134 
L 1269 4134 
L 1269 2991 
Q 1406 3038 1543 3061 
Q 1681 3084 1819 3084 
Q 2600 3084 3056 2656 
Q 3513 2228 3513 1497 
Q 3513 744 3044 326 
Q 2575 -91 1722 -91 
Q 1428 -91 1123 -41 
Q 819 9 494 109 
L 494 744 
Q 775 591 1075 516 
Q 1375 441 1709 441 
Q 2250 441 2565 725 
Q 2881 1009 2881 1497 
Q 2881 1984 2565 2268 
Q 2250 2553 1709 2553 
Q 1456 2553 1204 2497 
Q 953 2441 691 2322 
L 691 4666 
z
" transform="scale(0.015625)"/>
      <path id="DejaVuSans-30" d="M 2034 4250 
Q 1547 4250 1301 3770 
Q 1056 3291 1056 2328 
Q 1056 1369 1301 889 
Q 1547 409 2034 409 
Q 2525 409 2770 889 
Q 3016 1369 3016 2328 
Q 3016 3291 2770 3770 
Q 2525 4250 2034 4250 
z
M 2034 4750 
Q 2819 4750 3233 4129 
Q 3647 3509 3647 2328 
Q 3647 1150 3233 529 
Q 2819 -91 2034 -91 
Q 1250 -91 836 529 
Q 422 1150 422 2328 
Q 422 3509 836 4129 
Q 1250 4750 2034 4750 
z
" transform="scale(0.015625)"/>
      <path id="DejaVuSans-2d" d="M 313 2009 
L 1997 2009 
L 1997 1497 
L 313 1497 
L 313 2009 
z
" transform="scale(0.015625)"/>
      <path id="DejaVuSans-31" d="M 794 531 
L 1825 531 
L 1825 4091 
L 703 3866 
L 703 4441 
L 1819 4666 
L 2450 4666 
L 2450 531 
L 3481 531 
L 3481 0 
L 794 0 
L 794 531 
z
" transform="scale(0.015625)"/>
      <path id="DejaVuSans-25" d="M 4653 2053 
Q 4381 2053 4226 1822 
Q 4072 1591 4072 1178 
Q 4072 772 4226 539 
Q 4381 306 4653 306 
Q 4919 306 5073 539 
Q 5228 772 5228 1178 
Q 5228 1588 5073 1820 
Q 4919 2053 4653 2053 
z
M 4653 2450 
Q 5147 2450 5437 2106 
Q 5728 1763 5728 1178 
Q 5728 594 5436 251 
Q 5144 -91 4653 -91 
Q 4153 -91 3862 251 
Q 3572 594 3572 1178 
Q 3572 1766 3864 2108 
Q 4156 2450 4653 2450 
z
M 1428 4353 
Q 1159 4353 1004 4120 
Q 850 3888 850 3481 
Q 850 3069 1003 2837 
Q 1156 2606 1428 2606 
Q 1700 2606 1854 2837 
Q 2009 3069 2009 3481 
Q 2009 3884 1853 4118 
Q 1697 4353 1428 4353 
z
M 4250 4750 
L 4750 4750 
L 1831 -91 
L 1331 -91 
L 4250 4750 
z
M 1428 4750 
Q 1922 4750 2215 4408 
Q 2509 4066 2509 3481 
Q 2509 2891 2217 2550 
Q 1925 2209 1428 2209 
Q 931 2209 642 2551 
Q 353 2894 353 3481 
Q 353 4063 643 4406 
Q 934 4750 1428 4750 
z
" transform="scale(0.015625)"/>
      <path id="DejaVuSans-6e" d="M 3513 2113 
L 3513 0 
L 2938 0 
L 2938 2094 
Q 2938 2591 2744 2837 
Q 2550 3084 2163 3084 
Q 1697 3084 1428 2787 
Q 1159 2491 1159 1978 
L 1159 0 
L 581 0 
L 581 3500 
L 1159 3500 
L 1159 2956 
Q 1366 3272 1645 3428 
Q 1925 3584 2291 3584 
Q 2894 3584 3203 3211 
Q 3513 2838 3513 2113 
z
" transform="scale(0.015625)"/>
      <path id="DejaVuSans-74" d="M 1172 4494 
L 1172 3500 
L 2356 3500 
L 2356 3053 
L 1172 3053 
L 1172 1153 
Q 1172 725 1289 603 
Q 1406 481 1766 481 
L 2356 481 
L 2356 0 
L 1766 0 
Q 1100 0 847 248 
Q 594 497 594 1153 
L 594 3053 
L 172 3053 
L 172 3500 
L 594 3500 
L 594 4494 
L 1172 4494 
z
" transform="scale(0.015625)"/>
     </defs>
     <use xlink:href="#DejaVuSans-63"/>
     <use xlink:href="#DejaVuSans-6f" x="54.980469"/>
     <use xlink:href="#DejaVuSans-6d" x="116.162109"/>
     <use xlink:href="#DejaVuSans-70" x="213.574219"/>
     <use xlink:href="#DejaVuSans-3a" x="277.050781"/>
     <use xlink:href="#DejaVuSans-20" x="310.742188"/>
     <use xlink:href="#DejaVuSans-35" x="342.529297"/>
     <use xlink:href="#DejaVuSans-30" x="406.152344"/>
     <use xlink:href="#DejaVuSans-2d" x="469.775391"/>
     <use xlink:href="#DejaVuSans-31" x="505.859375"/>
     <use xlink:href="#DejaVuSans-30" x="569.482422"/>
     <use xlink:href="#DejaVuSans-30" x="633.105469"/>
     <use xlink:href="#DejaVuSans-25" x="696.728516"/>
     <use xlink:href="#DejaVuSans-20" x="791.748047"/>
     <use xlink:href="#DejaVuSans-20" x="823.535156"/>
     <use xlink:href="#DejaVuSans-63" x="855.322266"/>
     <use xlink:href="#DejaVuSans-6f" x="910.302734"/>
     <use xlink:href="#DejaVuSans-6e" x="971.484375"/>
     <use xlink:href="#DejaVuSans-74" x="1034.863281"/>
     <use xlink:href="#DejaVuSans-3a" x="1074.072266"/>
     <use xlink:href="#DejaVuSans-20" x="1107.763672"/>
     <use xlink:href="#DejaVuSans-30" x="1139.550781"/>
     <use xlink:href="#DejaVuSans-25" x="1203.173828"/>
    </g>
   </g>
   <g id="text_3">
    <!-- Set B (contamination gradient) -->
    <g transform="translate(149.694187 18.772875) scale(0.072 -0.072)">
     <defs>
      <path id="DejaVuSans-Bold-42" d="M 2456 2859 
Q 2741 2859 2887 2984 
Q 3034 3109 3034 3353 
Q 3034 3594 2887 3720 
Q 2741 3847 2456 3847 
L 1791 3847 
L 1791 2859 
L 2456 2859 
z
M 2497 819 
Q 2859 819 3042 972 
Q 3225 1125 3225 1434 
Q 3225 1738 3044 1889 
Q 2863 2041 2497 2041 
L 1791 2041 
L 1791 819 
L 2497 819 
z
M 3616 2497 
Q 4003 2384 4215 2081 
Q 4428 1778 4428 1338 
Q 4428 663 3972 331 
Q 3516 0 2584 0 
L 588 0 
L 588 4666 
L 2394 4666 
Q 3366 4666 3802 4372 
Q 4238 4078 4238 3431 
Q 4238 3091 4078 2852 
Q 3919 2613 3616 2497 
z
" transform="scale(0.015625)"/>
     </defs>
     <use xlink:href="#DejaVuSans-Bold-53"/>
     <use xlink:href="#DejaVuSans-Bold-65" x="72.021484"/>
     <use xlink:href="#DejaVuSans-Bold-74" x="139.84375"/>
     <use xlink:href="#DejaVuSans-Bold-20" x="187.646484"/>
     <use xlink:href="#DejaVuSans-Bold-42" x="222.460938"/>
     <use xlink:href="#DejaVuSans-Bold-20" x="298.681641"/>
     <use xlink:href="#DejaVuSans-Bold-28" x="333.496094"/>
     <use xlink:href="#DejaVuSans-Bold-63" x="379.199219"/>
     <use xlink:href="#DejaVuSans-Bold-6f" x="438.476562"/>
     <use xlink:href="#DejaVuSans-Bold-6e" x="507.177734"/>
     <use xlink:href="#DejaVuSans-Bold-74" x="578.369141"/>
     <use xlink:href="#DejaVuSans-Bold-61" x="626.171875"/>
     <use xlink:href="#DejaVuSans-Bold-6d" x="693.652344"/>
     <use xlink:href="#DejaVuSans-Bold-69" x="797.851562"/>
     <use xlink:href="#DejaVuSans-Bold-6e" x="832.128906"/>
     <use xlink:href="#DejaVuSans-Bold-61" x="903.320312"/>
     <use xlink:href="#DejaVuSans-Bold-74" x="970.800781"/>
     <use xlink:href="#DejaVuSans-Bold-69" x="1018.603516"/>
     <use xlink:href="#DejaVuSans-Bold-6f" x="1052.880859"/>
     <use xlink:href="#DejaVuSans-Bold-6e" x="1121.582031"/>
     <use xlink:href="#DejaVuSans-Bold-20" x="1192.773438"/>
     <use xlink:href="#DejaVuSans-Bold-67" x="1227.587891"/>
     <use xlink:href="#DejaVuSans-Bold-72" x="1299.169922"/>
     <use xlink:href="#DejaVuSans-Bold-61" x="1348.486328"/>
     <use xlink:href="#DejaVuSans-Bold-64" x="1415.966797"/>
     <use xlink:href="#DejaVuSans-Bold-69" x="1487.548828"/>
     <use xlink:href="#DejaVuSans-Bold-65" x="1521.826172"/>
     <use xlink:href="#DejaVuSans-Bold-6e" x="1589.648438"/>
     <use xlink:href="#DejaVuSans-Bold-74" x="1660.839844"/>
     <use xlink:href="#DejaVuSans-Bold-29" x="1708.642578"/>
    </g>
   </g>
   <g id="text_4">
    <!-- comp: 100%  cont: 0-80% -->
    <g style="fill: #333333" transform="translate(173.904844 27.563063) scale(0.06 -0.06)">
     <defs>
      <path id="DejaVuSans-38" d="M 2034 2216 
Q 1584 2216 1326 1975 
Q 1069 1734 1069 1313 
Q 1069 891 1326 650 
Q 1584 409 2034 409 
Q 2484 409 2743 651 
Q 3003 894 3003 1313 
Q 3003 1734 2745 1975 
Q 2488 2216 2034 2216 
z
M 1403 2484 
Q 997 2584 770 2862 
Q 544 3141 544 3541 
Q 544 4100 942 4425 
Q 1341 4750 2034 4750 
Q 2731 4750 3128 4425 
Q 3525 4100 3525 3541 
Q 3525 3141 3298 2862 
Q 3072 2584 2669 2484 
Q 3125 2378 3379 2068 
Q 3634 1759 3634 1313 
Q 3634 634 3220 271 
Q 2806 -91 2034 -91 
Q 1263 -91 848 271 
Q 434 634 434 1313 
Q 434 1759 690 2068 
Q 947 2378 1403 2484 
z
M 1172 3481 
Q 1172 3119 1398 2916 
Q 1625 2713 2034 2713 
Q 2441 2713 2670 2916 
Q 2900 3119 2900 3481 
Q 2900 3844 2670 4047 
Q 2441 4250 2034 4250 
Q 1625 4250 1398 4047 
Q 1172 3844 1172 3481 
z
" transform="scale(0.015625)"/>
     </defs>
     <use xlink:href="#DejaVuSans-63"/>
     <use xlink:href="#DejaVuSans-6f" x="54.980469"/>
     <use xlink:href="#DejaVuSans-6d" x="116.162109"/>
     <use xlink:href="#DejaVuSans-70" x="213.574219"/>
     <use xlink:href="#DejaVuSans-3a" x="277.050781"/>
     <use xlink:href="#DejaVuSans-20" x="310.742188"/>
     <use xlink:href="#DejaVuSans-31" x="342.529297"/>
     <use xlink:href="#DejaVuSans-30" x="406.152344"/>
     <use xlink:href="#DejaVuSans-30" x="469.775391"/>
     <use xlink:href="#DejaVuSans-25" x="533.398438"/>
     <use xlink:href="#DejaVuSans-20" x="628.417969"/>
     <use xlink:href="#DejaVuSans-20" x="660.205078"/>
     <use xlink:href="#DejaVuSans-63" x="691.992188"/>
     <use xlink:href="#DejaVuSans-6f" x="746.972656"/>
     <use xlink:href="#DejaVuSans-6e" x="808.154297"/>
     <use xlink:href="#DejaVuSans-74" x="871.533203"/>
     <use xlink:href="#DejaVuSans-3a" x="910.742188"/>
     <use xlink:href="#DejaVuSans-20" x="944.433594"/>
     <use xlink:href="#DejaVuSans-30" x="976.220703"/>
     <use xlink:href="#DejaVuSans-2d" x="1039.84375"/>
     <use xlink:href="#DejaVuSans-38" x="1075.927734"/>
     <use xlink:href="#DejaVuSans-30" x="1139.550781"/>
     <use xlink:href="#DejaVuSans-25" x="1203.173828"/>
    </g>
   </g>
   <g id="text_5">
    <!-- Set C (realistic mix) -->
    <g transform="translate(310.853813 18.772875) scale(0.072 -0.072)">
     <defs>
      <path id="DejaVuSans-Bold-43" d="M 4288 256 
Q 3956 84 3597 -3 
Q 3238 -91 2847 -91 
Q 1681 -91 1000 561 
Q 319 1213 319 2328 
Q 319 3447 1000 4098 
Q 1681 4750 2847 4750 
Q 3238 4750 3597 4662 
Q 3956 4575 4288 4403 
L 4288 3438 
Q 3953 3666 3628 3772 
Q 3303 3878 2944 3878 
Q 2300 3878 1931 3465 
Q 1563 3053 1563 2328 
Q 1563 1606 1931 1193 
Q 2300 781 2944 781 
Q 3303 781 3628 887 
Q 3953 994 4288 1222 
L 4288 256 
z
" transform="scale(0.015625)"/>
      <path id="DejaVuSans-Bold-78" d="M 1422 1791 
L 159 3500 
L 1344 3500 
L 2059 2463 
L 2784 3500 
L 3969 3500 
L 2706 1797 
L 4031 0 
L 2847 0 
L 2059 1106 
L 1281 0 
L 97 0 
L 1422 1791 
z
" transform="scale(0.015625)"/>
     </defs>
     <use xlink:href="#DejaVuSans-Bold-53"/>
     <use xlink:href="#DejaVuSans-Bold-65" x="72.021484"/>
     <use xlink:href="#DejaVuSans-Bold-74" x="139.84375"/>
     <use xlink:href="#DejaVuSans-Bold-20" x="187.646484"/>
     <use xlink:href="#DejaVuSans-Bold-43" x="222.460938"/>
     <use xlink:href="#DejaVuSans-Bold-20" x="295.849609"/>
     <use xlink:href="#DejaVuSans-Bold-28" x="330.664062"/>
     <use xlink:href="#DejaVuSans-Bold-72" x="376.367188"/>
     <use xlink:href="#DejaVuSans-Bold-65" x="425.683594"/>
     <use xlink:href="#DejaVuSans-Bold-61" x="493.505859"/>
     <use xlink:href="#DejaVuSans-Bold-6c" x="560.986328"/>
     <use xlink:href="#DejaVuSans-Bold-69" x="595.263672"/>
     <use xlink:href="#DejaVuSans-Bold-73" x="629.541016"/>
     <use xlink:href="#DejaVuSans-Bold-74" x="689.0625"/>
     <use xlink:href="#DejaVuSans-Bold-69" x="736.865234"/>
     <use xlink:href="#DejaVuSans-Bold-63" x="771.142578"/>
     <use xlink:href="#DejaVuSans-Bold-20" x="830.419922"/>
     <use xlink:href="#DejaVuSans-Bold-6d" x="865.234375"/>
     <use xlink:href="#DejaVuSans-Bold-69" x="969.433594"/>
     <use xlink:href="#DejaVuSans-Bold-78" x="1003.710938"/>
     <use xlink:href="#DejaVuSans-Bold-29" x="1068.212891"/>
    </g>
   </g>
   <g id="text_6">
    <!-- comp: 50-100%  cont: 0-100% -->
    <g style="fill: #333333" transform="translate(305.20125 27.563063) scale(0.06 -0.06)">
     <use xlink:href="#DejaVuSans-63"/>
     <use xlink:href="#DejaVuSans-6f" x="54.980469"/>
     <use xlink:href="#DejaVuSans-6d" x="116.162109"/>
     <use xlink:href="#DejaVuSans-70" x="213.574219"/>
     <use xlink:href="#DejaVuSans-3a" x="277.050781"/>
     <use xlink:href="#DejaVuSans-20" x="310.742188"/>
     <use xlink:href="#DejaVuSans-35" x="342.529297"/>
     <use xlink:href="#DejaVuSans-30" x="406.152344"/>
     <use xlink:href="#DejaVuSans-2d" x="469.775391"/>
     <use xlink:href="#DejaVuSans-31" x="505.859375"/>
     <use xlink:href="#DejaVuSans-30" x="569.482422"/>
     <use xlink:href="#DejaVuSans-30" x="633.105469"/>
     <use xlink:href="#DejaVuSans-25" x="696.728516"/>
     <use xlink:href="#DejaVuSans-20" x="791.748047"/>
     <use xlink:href="#DejaVuSans-20" x="823.535156"/>
     <use xlink:href="#DejaVuSans-63" x="855.322266"/>
     <use xlink:href="#DejaVuSans-6f" x="910.302734"/>
     <use xlink:href="#DejaVuSans-6e" x="971.484375"/>
     <use xlink:href="#DejaVuSans-74" x="1034.863281"/>
     <use xlink:href="#DejaVuSans-3a" x="1074.072266"/>
     <use xlink:href="#DejaVuSans-20" x="1107.763672"/>
     <use xlink:href="#DejaVuSans-30" x="1139.550781"/>
     <use xlink:href="#DejaVuSans-2d" x="1203.173828"/>
     <use xlink:href="#DejaVuSans-31" x="1239.257812"/>
     <use xlink:href="#DejaVuSans-30" x="1302.880859"/>
     <use xlink:href="#DejaVuSans-30" x="1366.503906"/>
     <use xlink:href="#DejaVuSans-25" x="1430.126953"/>
    </g>
   </g>
   <g id="text_7">
    <!-- 50 -->
    <g style="fill: #333333" transform="translate(32.64325 41.090956) scale(0.05 -0.05)">
     <use xlink:href="#DejaVuSans-35"/>
     <use xlink:href="#DejaVuSans-30" x="63.623047"/>
    </g>
   </g>
   <g id="text_8">
    <!-- 60 -->
    <g style="fill: #333333" transform="translate(48.54625 41.090956) scale(0.05 -0.05)">
     <defs>
      <path id="DejaVuSans-36" d="M 2113 2584 
Q 1688 2584 1439 2293 
Q 1191 2003 1191 1497 
Q 1191 994 1439 701 
Q 1688 409 2113 409 
Q 2538 409 2786 701 
Q 3034 994 3034 1497 
Q 3034 2003 2786 2293 
Q 2538 2584 2113 2584 
z
M 3366 4563 
L 3366 3988 
Q 3128 4100 2886 4159 
Q 2644 4219 2406 4219 
Q 1781 4219 1451 3797 
Q 1122 3375 1075 2522 
Q 1259 2794 1537 2939 
Q 1816 3084 2150 3084 
Q 2853 3084 3261 2657 
Q 3669 2231 3669 1497 
Q 3669 778 3244 343 
Q 2819 -91 2113 -91 
Q 1303 -91 875 529 
Q 447 1150 447 2328 
Q 447 3434 972 4092 
Q 1497 4750 2381 4750 
Q 2619 4750 2861 4703 
Q 3103 4656 3366 4563 
z
" transform="scale(0.015625)"/>
     </defs>
     <use xlink:href="#DejaVuSans-36"/>
     <use xlink:href="#DejaVuSans-30" x="63.623047"/>
    </g>
   </g>
   <g id="text_9">
    <!-- 70 -->
    <g style="fill: #333333" transform="translate(64.44925 41.090956) scale(0.05 -0.05)">
     <defs>
      <path id="DejaVuSans-37" d="M 525 4666 
L 3525 4666 
L 3525 4397 
L 1831 0 
L 1172 0 
L 2766 4134 
L 525 4134 
L 525 4666 
z
" transform="scale(0.015625)"/>
     </defs>
     <use xlink:href="#DejaVuSans-37"/>
     <use xlink:href="#DejaVuSans-30" x="63.623047"/>
    </g>
   </g>
   <g id="text_10">
    <!-- 80 -->
    <g style="fill: #333333" transform="translate(80.35225 41.090956) scale(0.05 -0.05)">
     <use xlink:href="#DejaVuSans-38"/>
     <use xlink:href="#DejaVuSans-30" x="63.623047"/>
    </g>
   </g>
   <g id="text_11">
    <!-- 90 -->
    <g style="fill: #333333" transform="translate(96.25525 41.090956) scale(0.05 -0.05)">
     <defs>
      <path id="DejaVuSans-39" d="M 703 97 
L 703 672 
Q 941 559 1184 500 
Q 1428 441 1663 441 
Q 2288 441 2617 861 
Q 2947 1281 2994 2138 
Q 2813 1869 2534 1725 
Q 2256 1581 1919 1581 
Q 1219 1581 811 2004 
Q 403 2428 403 3163 
Q 403 3881 828 4315 
Q 1253 4750 1959 4750 
Q 2769 4750 3195 4129 
Q 3622 3509 3622 2328 
Q 3622 1225 3098 567 
Q 2575 -91 1691 -91 
Q 1453 -91 1209 -44 
Q 966 3 703 97 
z
M 1959 2075 
Q 2384 2075 2632 2365 
Q 2881 2656 2881 3163 
Q 2881 3666 2632 3958 
Q 2384 4250 1959 4250 
Q 1534 4250 1286 3958 
Q 1038 3666 1038 3163 
Q 1038 2656 1286 2365 
Q 1534 2075 1959 2075 
z
" transform="scale(0.015625)"/>
     </defs>
     <use xlink:href="#DejaVuSans-39"/>
     <use xlink:href="#DejaVuSans-30" x="63.623047"/>
    </g>
   </g>
   <g id="text_12">
    <!-- 100 -->
    <g style="fill: #333333" transform="translate(110.567625 41.090956) scale(0.05 -0.05)">
     <use xlink:href="#DejaVuSans-31"/>
     <use xlink:href="#DejaVuSans-30" x="63.623047"/>
     <use xlink:href="#DejaVuSans-30" x="127.246094"/>
    </g>
   </g>
   <g id="text_13">
    <!-- 0 -->
    <g style="fill: #333333" transform="translate(173.594375 41.090956) scale(0.05 -0.05)">
     <use xlink:href="#DejaVuSans-30"/>
    </g>
   </g>
   <g id="text_14">
    <!-- 20 -->
    <g style="fill: #333333" transform="translate(190.41775 41.090956) scale(0.05 -0.05)">
     <defs>
      <path id="DejaVuSans-32" d="M 1228 531 
L 3431 531 
L 3431 0 
L 469 0 
L 469 531 
Q 828 903 1448 1529 
Q 2069 2156 2228 2338 
Q 2531 2678 2651 2914 
Q 2772 3150 2772 3378 
Q 2772 3750 2511 3984 
Q 2250 4219 1831 4219 
Q 1534 4219 1204 4116 
Q 875 4013 500 3803 
L 500 4441 
Q 881 4594 1212 4672 
Q 1544 4750 1819 4750 
Q 2544 4750 2975 4387 
Q 3406 4025 3406 3419 
Q 3406 3131 3298 2873 
Q 3191 2616 2906 2266 
Q 2828 2175 2409 1742 
Q 1991 1309 1228 531 
z
" transform="scale(0.015625)"/>
     </defs>
     <use xlink:href="#DejaVuSans-32"/>
     <use xlink:href="#DejaVuSans-30" x="63.623047"/>
    </g>
   </g>
   <g id="text_15">
    <!-- 40 -->
    <g style="fill: #333333" transform="translate(208.83175 41.090956) scale(0.05 -0.05)">
     <defs>
      <path id="DejaVuSans-34" d="M 2419 4116 
L 825 1625 
L 2419 1625 
L 2419 4116 
z
M 2253 4666 
L 3047 4666 
L 3047 1625 
L 3713 1625 
L 3713 1100 
L 3047 1100 
L 3047 0 
L 2419 0 
L 2419 1100 
L 313 1100 
L 313 1709 
L 2253 4666 
z
" transform="scale(0.015625)"/>
     </defs>
     <use xlink:href="#DejaVuSans-34"/>
     <use xlink:href="#DejaVuSans-30" x="63.623047"/>
    </g>
   </g>
   <g id="text_16">
    <!-- 60 -->
    <g style="fill: #333333" transform="translate(227.24575 41.090956) scale(0.05 -0.05)">
     <use xlink:href="#DejaVuSans-36"/>
     <use xlink:href="#DejaVuSans-30" x="63.623047"/>
    </g>
   </g>
   <g id="text_17">
    <!-- 80 -->
    <g style="fill: #333333" transform="translate(245.65975 41.090956) scale(0.05 -0.05)">
     <use xlink:href="#DejaVuSans-38"/>
     <use xlink:href="#DejaVuSans-30" x="63.623047"/>
    </g>
   </g>
   <g id="text_18">
    <!-- n = 1,000 -->
    <g style="fill: #555555" transform="translate(61.325578 66.232969) scale(0.054 -0.054)">
     <defs>
      <path id="DejaVuSans-Oblique-6e" d="M 3566 2113 
L 3156 0 
L 2578 0 
L 2988 2091 
Q 3016 2238 3031 2350 
Q 3047 2463 3047 2528 
Q 3047 2791 2881 2937 
Q 2716 3084 2419 3084 
Q 1956 3084 1622 2776 
Q 1288 2469 1184 1941 
L 800 0 
L 225 0 
L 903 3500 
L 1478 3500 
L 1363 2950 
Q 1603 3253 1940 3418 
Q 2278 3584 2650 3584 
Q 3113 3584 3367 3334 
Q 3622 3084 3622 2631 
Q 3622 2519 3608 2391 
Q 3594 2263 3566 2113 
z
" transform="scale(0.015625)"/>
      <path id="DejaVuSans-Oblique-20" transform="scale(0.015625)"/>
      <path id="DejaVuSans-Oblique-3d" d="M 678 2906 
L 4684 2906 
L 4684 2381 
L 678 2381 
L 678 2906 
z
M 678 1631 
L 4684 1631 
L 4684 1100 
L 678 1100 
L 678 1631 
z
" transform="scale(0.015625)"/>
      <path id="DejaVuSans-Oblique-31" d="M 416 531 
L 1447 531 
L 2144 4122 
L 978 3897 
L 1088 4441 
L 2247 4666 
L 2881 4666 
L 2075 531 
L 3103 531 
L 3003 0 
L 313 0 
L 416 531 
z
" transform="scale(0.015625)"/>
      <path id="DejaVuSans-Oblique-2c" d="M 575 794 
L 1234 794 
L 1131 256 
L 422 -744 
L 19 -744 
L 469 256 
L 575 794 
z
" transform="scale(0.015625)"/>
      <path id="DejaVuSans-Oblique-30" d="M 2444 4750 
Q 3078 4750 3414 4328 
Q 3750 3906 3750 3116 
Q 3750 2516 3592 1923 
Q 3434 1331 3150 863 
Q 2859 394 2467 151 
Q 2075 -91 1600 -91 
Q 988 -91 653 334 
Q 319 759 319 1544 
Q 319 2138 480 2733 
Q 641 3328 928 3794 
Q 1216 4263 1602 4506 
Q 1988 4750 2444 4750 
z
M 2406 4250 
Q 2169 4250 1955 4123 
Q 1741 3997 1569 3750 
Q 1281 3338 1111 2720 
Q 941 2103 941 1453 
Q 941 938 1123 673 
Q 1306 409 1663 409 
Q 1913 409 2125 536 
Q 2338 663 2509 909 
Q 2794 1319 2961 1936 
Q 3128 2553 3128 3206 
Q 3128 3722 2945 3986 
Q 2763 4250 2406 4250 
z
" transform="scale(0.015625)"/>
     </defs>
     <use xlink:href="#DejaVuSans-Oblique-6e"/>
     <use xlink:href="#DejaVuSans-Oblique-20" x="63.378906"/>
     <use xlink:href="#DejaVuSans-Oblique-3d" x="95.166016"/>
     <use xlink:href="#DejaVuSans-Oblique-20" x="178.955078"/>
     <use xlink:href="#DejaVuSans-Oblique-31" x="210.742188"/>
     <use xlink:href="#DejaVuSans-Oblique-2c" x="274.365234"/>
     <use xlink:href="#DejaVuSans-Oblique-30" x="306.152344"/>
     <use xlink:href="#DejaVuSans-Oblique-30" x="369.775391"/>
     <use xlink:href="#DejaVuSans-Oblique-30" x="433.398438"/>
    </g>
   </g>
   <g id="text_19">
    <!-- n = 1,000 -->
    <g style="fill: #555555" transform="translate(199.430578 66.232969) scale(0.054 -0.054)">
     <use xlink:href="#DejaVuSans-Oblique-6e"/>
     <use xlink:href="#DejaVuSans-Oblique-20" x="63.378906"/>
     <use xlink:href="#DejaVuSans-Oblique-3d" x="95.166016"/>
     <use xlink:href="#DejaVuSans-Oblique-20" x="178.955078"/>
     <use xlink:href="#DejaVuSans-Oblique-31" x="210.742188"/>
     <use xlink:href="#DejaVuSans-Oblique-2c" x="274.365234"/>
     <use xlink:href="#DejaVuSans-Oblique-30" x="306.152344"/>
     <use xlink:href="#DejaVuSans-Oblique-30" x="369.775391"/>
     <use xlink:href="#DejaVuSans-Oblique-30" x="433.398438"/>
    </g>
   </g>
   <g id="text_20">
    <!-- n = 1,000 -->
    <g style="fill: #555555" transform="translate(337.535578 66.232969) scale(0.054 -0.054)">
     <use xlink:href="#DejaVuSans-Oblique-6e"/>
     <use xlink:href="#DejaVuSans-Oblique-20" x="63.378906"/>
     <use xlink:href="#DejaVuSans-Oblique-3d" x="95.166016"/>
     <use xlink:href="#DejaVuSans-Oblique-20" x="178.955078"/>
     <use xlink:href="#DejaVuSans-Oblique-31" x="210.742188"/>
     <use xlink:href="#DejaVuSans-Oblique-2c" x="274.365234"/>
     <use xlink:href="#DejaVuSans-Oblique-30" x="306.152344"/>
     <use xlink:href="#DejaVuSans-Oblique-30" x="369.775391"/>
     <use xlink:href="#DejaVuSans-Oblique-30" x="433.398438"/>
    </g>
   </g>
  </g>
 </g>
 <defs>
  <clipPath id="pe79d08f08b">
   <rect x="3.6" y="3.6" width="418.5" height="83.16"/>
  </clipPath>
 </defs>
</svg>
